<svg xmlns="http://www.w3.org/2000/svg" xmlns:xlink="http://www.w3.org/1999/xlink" width="500" zoomAndPan="magnify" viewBox="0 0 375 374.999991" height="500" preserveAspectRatio="xMidYMid meet" version="1.0"><defs><g/><clipPath id="d985fbd88f"><path d="M 71.601562 71.601562 L 303.351562 71.601562 L 303.351562 303.351562 L 71.601562 303.351562 Z M 71.601562 71.601562 " clip-rule="nonzero"/></clipPath><clipPath id="f441a5e7a8"><path d="M 187.5 71.601562 C 123.488281 71.601562 71.601562 123.488281 71.601562 187.5 C 71.601562 251.507812 123.488281 303.398438 187.5 303.398438 C 251.507812 303.398438 303.398438 251.507812 303.398438 187.5 C 303.398438 123.488281 251.507812 71.601562 187.5 71.601562 Z M 187.5 71.601562 " clip-rule="nonzero"/></clipPath><clipPath id="d4a2595754"><path d="M 108.578125 108.578125 L 266.078125 108.578125 L 266.078125 266.078125 L 108.578125 266.078125 Z M 108.578125 108.578125 " clip-rule="nonzero"/></clipPath><clipPath id="1bda958149"><path d="M 187.496094 108.578125 C 143.910156 108.578125 108.578125 143.910156 108.578125 187.496094 C 108.578125 231.082031 143.910156 266.417969 187.496094 266.417969 C 231.082031 266.417969 266.417969 231.082031 266.417969 187.496094 C 266.417969 143.910156 231.082031 108.578125 187.496094 108.578125 Z M 187.496094 108.578125 " clip-rule="nonzero"/></clipPath><clipPath id="f1c2ad28c1"><path d="M 38.5 152.71875 L 336.5 152.71875 L 336.5 222.28125 L 38.5 222.28125 Z M 38.5 152.71875 " clip-rule="nonzero"/></clipPath></defs><rect x="-37.5" width="450" fill="#ffffff" y="-37.499999" height="449.999989" fill-opacity="1"/><rect x="-37.5" width="450" fill="#ffffff" y="-37.499999" height="449.999989" fill-opacity="1"/><g clip-path="url(#d985fbd88f)"><g clip-path="url(#f441a5e7a8)"><path stroke-linecap="butt" transform="matrix(0.75, 0, 0, 0.75, 71.600311, 71.600306)" fill="none" stroke-linejoin="miter" d="M 154.532929 0.00167467 C 69.183965 0.00167467 0.00166867 69.183971 0.00166867 154.532935 C 0.00166867 239.87669 69.183965 309.064195 154.532929 309.064195 C 239.876684 309.064195 309.064189 239.87669 309.064189 154.532935 C 309.064189 69.183971 239.876684 0.00167467 154.532929 0.00167467 Z M 154.532929 0.00167467 " stroke="#000000" stroke-width="12" stroke-opacity="1" stroke-miterlimit="4"/></g></g><g fill="#000000" fill-opacity="1"><g transform="translate(115.824358, 138.328669)"><g><path d="M 1.296875 -1.546875 L -0.796875 -3.3125 L 1.4375 -5.9375 L -4.734375 -11.140625 L -5.015625 -8.265625 L -7.875 -8.59375 L -7.1875 -15.125 L -5.9375 -16.609375 L 3.625 -8.53125 L 5.6875 -10.984375 L 7.78125 -9.21875 Z M 1.296875 -1.546875 "/></g></g></g><g fill="#000000" fill-opacity="1"><g transform="translate(125.297769, 127.315738)"><g><path d="M 5.109375 -4.0625 C 3.679688 -2.800781 2.1875 -2.320312 0.625 -2.625 C -0.9375 -2.9375 -2.554688 -4.082031 -4.234375 -6.0625 C -5.273438 -7.28125 -6.003906 -8.507812 -6.421875 -9.75 C -6.847656 -11 -6.941406 -12.175781 -6.703125 -13.28125 C -6.460938 -14.382812 -5.867188 -15.335938 -4.921875 -16.140625 C -3.597656 -17.265625 -2.160156 -17.648438 -0.609375 -17.296875 C 0.941406 -16.953125 2.523438 -15.835938 4.140625 -13.953125 C 5.160156 -12.742188 5.894531 -11.523438 6.34375 -10.296875 C 6.800781 -9.078125 6.929688 -7.925781 6.734375 -6.84375 C 6.535156 -5.769531 5.992188 -4.84375 5.109375 -4.0625 Z M 3.109375 -6.25 C 3.710938 -6.769531 3.875 -7.488281 3.59375 -8.40625 C 3.3125 -9.332031 2.628906 -10.429688 1.546875 -11.703125 C -0.453125 -14.054688 -1.992188 -14.769531 -3.078125 -13.84375 C -3.691406 -13.320312 -3.863281 -12.582031 -3.59375 -11.625 C -3.332031 -10.664062 -2.679688 -9.570312 -1.640625 -8.34375 C -0.609375 -7.132812 0.289062 -6.359375 1.0625 -6.015625 C 1.832031 -5.671875 2.515625 -5.75 3.109375 -6.25 Z M 3.109375 -6.25 "/></g></g></g><g fill="#000000" fill-opacity="1"><g transform="translate(136.444944, 118.000615)"><g><path d="M 5.703125 -3.171875 C 4.085938 -2.160156 2.535156 -1.929688 1.046875 -2.484375 C -0.429688 -3.046875 -1.84375 -4.441406 -3.1875 -6.671875 C -4.007812 -8.046875 -4.53125 -9.378906 -4.75 -10.671875 C -4.96875 -11.972656 -4.863281 -13.144531 -4.4375 -14.1875 C -4.019531 -15.238281 -3.28125 -16.082031 -2.21875 -16.71875 C -0.726562 -17.613281 0.753906 -17.757812 2.234375 -17.15625 C 3.710938 -16.5625 5.085938 -15.203125 6.359375 -13.078125 C 7.179688 -11.722656 7.710938 -10.40625 7.953125 -9.125 C 8.203125 -7.84375 8.140625 -6.6875 7.765625 -5.65625 C 7.390625 -4.625 6.703125 -3.796875 5.703125 -3.171875 Z M 4.078125 -5.671875 C 4.753906 -6.078125 5.03125 -6.753906 4.90625 -7.703125 C 4.789062 -8.660156 4.300781 -9.859375 3.4375 -11.296875 C 1.851562 -13.929688 0.445312 -14.878906 -0.78125 -14.140625 C -1.46875 -13.734375 -1.757812 -13.035156 -1.65625 -12.046875 C -1.550781 -11.066406 -1.085938 -9.882812 -0.265625 -8.5 C 0.554688 -7.144531 1.316406 -6.234375 2.015625 -5.765625 C 2.722656 -5.296875 3.410156 -5.265625 4.078125 -5.671875 Z M 4.078125 -5.671875 "/></g></g></g><g fill="#000000" fill-opacity="1"><g transform="translate(148.714091, 110.513455)"><g><path d="M 1.375 -9.265625 C 0.3125 -8.878906 -0.648438 -8.863281 -1.515625 -9.21875 C -2.390625 -9.570312 -3.007812 -10.242188 -3.375 -11.234375 C -3.625 -11.921875 -3.675781 -12.59375 -3.53125 -13.25 C -3.382812 -13.914062 -3.082031 -14.503906 -2.625 -15.015625 C -2.164062 -15.535156 -1.566406 -15.929688 -0.828125 -16.203125 C 0.253906 -16.597656 1.222656 -16.617188 2.078125 -16.265625 C 2.941406 -15.910156 3.554688 -15.226562 3.921875 -14.21875 C 4.171875 -13.53125 4.226562 -12.859375 4.09375 -12.203125 C 3.957031 -11.546875 3.65625 -10.957031 3.1875 -10.4375 C 2.71875 -9.925781 2.113281 -9.535156 1.375 -9.265625 Z M 1.953125 -0.71875 L 6.953125 -18.796875 L 9.625 -19.78125 L 4.640625 -1.703125 Z M 0.78125 -11.203125 C 1.25 -11.367188 1.570312 -11.65625 1.75 -12.0625 C 1.925781 -12.46875 1.925781 -12.914062 1.75 -13.40625 C 1.59375 -13.84375 1.34375 -14.140625 1 -14.296875 C 0.65625 -14.453125 0.269531 -14.453125 -0.15625 -14.296875 C -0.65625 -14.117188 -0.992188 -13.828125 -1.171875 -13.421875 C -1.359375 -13.015625 -1.363281 -12.5625 -1.1875 -12.0625 C -1.019531 -11.625 -0.765625 -11.328125 -0.421875 -11.171875 C -0.078125 -11.015625 0.320312 -11.023438 0.78125 -11.203125 Z M 12.40625 -4.359375 C 11.332031 -3.960938 10.363281 -3.941406 9.5 -4.296875 C 8.632812 -4.648438 8.019531 -5.328125 7.65625 -6.328125 C 7.40625 -7.015625 7.34375 -7.6875 7.46875 -8.34375 C 7.601562 -9 7.898438 -9.582031 8.359375 -10.09375 C 8.828125 -10.601562 9.4375 -10.992188 10.1875 -11.265625 C 11.257812 -11.660156 12.222656 -11.679688 13.078125 -11.328125 C 13.941406 -10.972656 14.554688 -10.296875 14.921875 -9.296875 C 15.171875 -8.609375 15.222656 -7.9375 15.078125 -7.28125 C 14.941406 -6.632812 14.644531 -6.050781 14.1875 -5.53125 C 13.726562 -5.019531 13.132812 -4.628906 12.40625 -4.359375 Z M 11.765625 -6.265625 C 12.234375 -6.441406 12.554688 -6.734375 12.734375 -7.140625 C 12.910156 -7.546875 12.90625 -8.007812 12.71875 -8.53125 C 12.5625 -8.957031 12.3125 -9.238281 11.96875 -9.375 C 11.625 -9.519531 11.234375 -9.515625 10.796875 -9.359375 C 10.304688 -9.171875 9.976562 -8.875 9.8125 -8.46875 C 9.644531 -8.070312 9.648438 -7.628906 9.828125 -7.140625 C 9.984375 -6.703125 10.226562 -6.40625 10.5625 -6.25 C 10.90625 -6.09375 11.304688 -6.097656 11.765625 -6.265625 Z M 11.765625 -6.265625 "/></g></g></g><g fill="#000000" fill-opacity="1"><g transform="translate(167.316703, 104.352548)"><g/></g></g><g fill="#000000" fill-opacity="1"><g transform="translate(174.442107, 102.756397)"><g><path d="M 1.4375 -0.09375 L 0.390625 -15.328125 L 6.09375 -15.71875 C 7.9375 -15.851562 9.414062 -15.597656 10.53125 -14.953125 C 11.644531 -14.304688 12.253906 -13.285156 12.359375 -11.890625 C 12.398438 -11.191406 12.28125 -10.546875 12 -9.953125 C 11.726562 -9.367188 11.328125 -8.894531 10.796875 -8.53125 C 11.429688 -8.28125 11.957031 -7.882812 12.375 -7.34375 C 12.800781 -6.8125 13.039062 -6.15625 13.09375 -5.375 C 13.15625 -4.5 12.972656 -3.707031 12.546875 -3 C 12.117188 -2.300781 11.484375 -1.734375 10.640625 -1.296875 C 9.796875 -0.859375 8.773438 -0.597656 7.578125 -0.515625 Z M 6.359375 -12.875 L 4.015625 -12.703125 L 4.234375 -9.421875 L 6.375 -9.578125 C 7.269531 -9.640625 7.914062 -9.816406 8.3125 -10.109375 C 8.71875 -10.410156 8.90625 -10.851562 8.875 -11.4375 C 8.832031 -11.96875 8.609375 -12.351562 8.203125 -12.59375 C 7.804688 -12.832031 7.191406 -12.925781 6.359375 -12.875 Z M 4.65625 -3.1875 L 7.328125 -3.375 C 8.078125 -3.425781 8.648438 -3.601562 9.046875 -3.90625 C 9.453125 -4.21875 9.632812 -4.671875 9.59375 -5.265625 C 9.550781 -5.847656 9.335938 -6.253906 8.953125 -6.484375 C 8.566406 -6.710938 7.953125 -6.796875 7.109375 -6.734375 L 4.4375 -6.546875 Z M 4.65625 -3.1875 "/></g></g></g><g fill="#000000" fill-opacity="1"><g transform="translate(189.79844, 101.72605)"><g><path d="M 13.171875 -13.796875 L 16.625 -13.390625 L 15.6875 -5.1875 C 15.519531 -3.75 15.097656 -2.519531 14.421875 -1.5 C 13.753906 -0.476562 12.882812 0.265625 11.8125 0.734375 C 10.738281 1.203125 9.53125 1.359375 8.1875 1.203125 C 5.9375 0.929688 4.296875 0.171875 3.265625 -1.078125 C 2.242188 -2.335938 1.863281 -4.066406 2.125 -6.265625 L 3.171875 -15 L 6.65625 -14.578125 L 5.640625 -6.125 C 5.484375 -4.769531 5.660156 -3.757812 6.171875 -3.09375 C 6.679688 -2.4375 7.460938 -2.046875 8.515625 -1.921875 C 9.554688 -1.796875 10.398438 -2.039062 11.046875 -2.65625 C 11.691406 -3.28125 12.097656 -4.328125 12.265625 -5.796875 Z M 13.171875 -13.796875 "/></g></g></g><g fill="#000000" fill-opacity="1"><g transform="translate(207.393402, 104.030033)"><g><path d="M -0.484375 -0.15625 L 10.5 -12.65625 L 13.296875 -11.75 L 14.671875 4.734375 L 11.265625 3.640625 L 11.0625 0.296875 L 5.078125 -1.640625 L 2.90625 0.9375 Z M 7.125 -4.046875 L 10.859375 -2.84375 L 10.53125 -8.125 Z M 7.125 -4.046875 "/></g></g></g><g fill="#000000" fill-opacity="1"><g transform="translate(223.058343, 109.326922)"><g><path d="M 18.796875 -7.328125 L 16.953125 -4.828125 L 12.875 -6.984375 L 7.1875 3.796875 L 4.0625 2.140625 L 9.75 -8.640625 L 5.484375 -10.890625 L 6.921875 -13.609375 Z M 18.796875 -7.328125 "/></g></g></g><g fill="#000000" fill-opacity="1"><g transform="translate(235.679433, 116.038483)"><g><path d="M -0.40625 -0.3125 L 14.1875 -8.3125 L 16.5 -6.515625 L 12.171875 9.46875 L 9.359375 7.265625 L 10.3125 4.046875 L 5.34375 0.1875 L 2.40625 1.875 Z M 8.078125 -1.390625 L 11.171875 1.015625 L 12.6875 -4.03125 Z M 8.078125 -1.390625 "/></g></g></g><g fill="#000000" fill-opacity="1"><g transform="translate(248.602507, 126.183098)"><g><path d="M 18.953125 -1.515625 L 21.171875 1.03125 L 9.671875 11.078125 L 7.625 8.734375 L 10.3125 -2.609375 L 3.171875 3.625 L 0.953125 1.078125 L 12.453125 -8.96875 L 14.5 -6.609375 L 11.8125 4.734375 Z M 18.953125 -1.515625 "/></g></g></g><g clip-path="url(#d4a2595754)"><g clip-path="url(#1bda958149)"><path stroke-linecap="butt" transform="matrix(0.75, 0, 0, 0.75, 108.576473, 108.576468)" fill="none" stroke-linejoin="miter" d="M 105.226168 0.00220924 C 47.111581 0.00220924 0.00220324 47.111587 0.00220324 105.226174 C 0.00220324 163.340762 47.111581 210.455348 105.226168 210.455348 C 163.340756 210.455348 210.455342 163.340762 210.455342 105.226174 C 210.455342 47.111587 163.340756 0.00220924 105.226168 0.00220924 Z M 105.226168 0.00220924 " stroke="#000000" stroke-width="12" stroke-opacity="1" stroke-miterlimit="4"/></g></g><g clip-path="url(#f1c2ad28c1)"><path fill="#ffffff" d="M 38.5 152.71875 L 336.578125 152.71875 L 336.578125 222.28125 L 38.5 222.28125 Z M 38.5 152.71875 " fill-opacity="1" fill-rule="nonzero"/></g><path stroke-linecap="butt" transform="matrix(0.75, 0.000000000000000065, -0.000000000000000065, 0.75, 65.407661, 151.095854)" fill="none" stroke-linejoin="miter" d="M -0.00188134 3.002403 L 325.675223 3.002403 " stroke="#000000" stroke-width="6" stroke-opacity="1" stroke-miterlimit="4"/><path stroke-linecap="butt" transform="matrix(0.749978, -0.00578304, 0.00578304, 0.749978, 228.411861, 151.095928)" fill="none" stroke-linejoin="miter" d="M 0.000618428 3.002398 L 108.316375 2.999049 " stroke="#000000" stroke-width="6" stroke-opacity="1" stroke-miterlimit="4"/><path stroke-linecap="butt" transform="matrix(0.749969, -0.00686546, 0.00686546, 0.749969, 65.387059, 220.656972)" fill="none" stroke-linejoin="miter" d="M -0.00186665 2.999146 L 91.236319 3.001003 " stroke="#000000" stroke-width="6" stroke-opacity="1" stroke-miterlimit="4"/><path stroke-linecap="butt" transform="matrix(0.749999, -0.00111894, 0.00111894, 0.749999, 99.617129, 220.343702)" fill="none" stroke-linejoin="miter" d="M 0.000810279 3.000068 L 279.9074 3.000998 " stroke="#000000" stroke-width="6" stroke-opacity="1" stroke-miterlimit="4"/><g fill="#000000" fill-opacity="1"><g transform="translate(46.906887, 202.499987)"><g><path d="M 2.453125 0 L 2.453125 -29.109375 L 10.65625 -29.109375 L 10.65625 -7.140625 L 22.796875 -7.140625 L 22.296875 0 Z M 2.453125 0 "/></g></g></g><g fill="#000000" fill-opacity="1"><g transform="translate(72.40458, 202.499987)"><g><path d="M 23.703125 -22.09375 L 10.53125 -22.09375 L 10.53125 -18.125 L 22.625 -18.125 L 22.625 -11.109375 L 10.53125 -11.109375 L 10.53125 -7.015625 L 24.03125 -7.015625 L 23.53125 0 L 2.453125 0 L 2.453125 -29.109375 L 23.703125 -29.109375 Z M 23.703125 -22.09375 "/></g></g></g><g fill="#000000" fill-opacity="1"><g transform="translate(99.664936, 202.499987)"><g><path d="M 2.546875 0 L 3.40625 -29.109375 L 10.09375 -29.109375 L 19.84375 -10.125 L 29.4375 -29.109375 L 36.125 -29.109375 L 36.734375 0 L 28.828125 0 L 28.578125 -12.171875 L 22.34375 0 L 16.609375 0 L 10.40625 -11.96875 L 10.046875 0 Z M 2.546875 0 "/></g></g></g><g fill="#000000" fill-opacity="1"><g transform="translate(141.846454, 202.499987)"><g><path d="M -1.59375 0 L 11.234375 -29.109375 L 18.046875 -29.109375 L 30.421875 0 L 22.140625 0 L 20.09375 -5.203125 L 8.8125 -5.203125 L 6.6875 0 Z M 11.609375 -11.96875 L 17.390625 -11.96875 L 14.5625 -19.109375 Z M 11.609375 -11.96875 "/></g></g></g><g fill="#000000" fill-opacity="1"><g transform="translate(173.69794, 202.499987)"><g><path d="M 21.03125 -29.109375 L 28.90625 -29.109375 L 28.90625 0 L 21.609375 0 L 10.328125 -15.65625 L 10.328125 0 L 2.453125 0 L 2.453125 -29.109375 L 9.765625 -29.109375 L 21.03125 -13.484375 Z M 21.03125 -29.109375 "/></g></g></g><g fill="#000000" fill-opacity="1"><g transform="translate(207.926964, 202.499987)"><g><path d="M 17.265625 -16.515625 L 30.625 -16.515625 L 30.625 0 L 24.15625 0 L 23.609375 -2.5 C 22.765625 -1.519531 21.644531 -0.78125 20.25 -0.28125 C 18.851562 0.207031 17.363281 0.453125 15.78125 0.453125 C 12.800781 0.453125 10.210938 -0.117188 8.015625 -1.265625 C 5.816406 -2.421875 4.113281 -4.078125 2.90625 -6.234375 C 1.707031 -8.390625 1.109375 -10.957031 1.109375 -13.9375 C 1.109375 -17.03125 1.796875 -19.742188 3.171875 -22.078125 C 4.554688 -24.410156 6.5 -26.234375 9 -27.546875 C 11.5 -28.859375 14.414062 -29.515625 17.75 -29.515625 C 20.84375 -29.515625 23.398438 -29.019531 25.421875 -28.03125 C 27.441406 -27.050781 29.125 -25.550781 30.46875 -23.53125 L 24.234375 -19.03125 C 23.597656 -20.144531 22.6875 -20.945312 21.5 -21.4375 C 20.3125 -21.9375 19.078125 -22.1875 17.796875 -22.1875 C 15.273438 -22.1875 13.285156 -21.445312 11.828125 -19.96875 C 10.367188 -18.488281 9.640625 -16.546875 9.640625 -14.140625 C 9.640625 -11.847656 10.273438 -10.054688 11.546875 -8.765625 C 12.816406 -7.484375 14.570312 -6.84375 16.8125 -6.84375 C 18.09375 -6.84375 19.242188 -7.109375 20.265625 -7.640625 C 21.296875 -8.179688 22.015625 -8.941406 22.421875 -9.921875 L 17.265625 -9.921875 Z M 17.265625 -16.515625 "/></g></g></g><g fill="#000000" fill-opacity="1"><g transform="translate(242.934851, 202.499987)"><g><path d="M 26.359375 -29.109375 L 25.171875 -21.96875 L 16.640625 -21.96875 L 16.640625 0 L 8.453125 0 L 8.453125 -21.96875 L -0.65625 -21.96875 L -0.65625 -29.109375 Z M 26.359375 -29.109375 "/></g></g></g><g fill="#000000" fill-opacity="1"><g transform="translate(270.851086, 202.499987)"><g><path d="M 21.28125 -29.109375 L 29.3125 -29.109375 L 29.390625 -13.15625 C 29.421875 -10.476562 28.875 -8.113281 27.75 -6.0625 C 26.632812 -4.019531 25.066406 -2.421875 23.046875 -1.265625 C 21.023438 -0.117188 18.671875 0.453125 15.984375 0.453125 C 11.617188 0.453125 8.253906 -0.640625 5.890625 -2.828125 C 3.523438 -5.015625 2.34375 -8.253906 2.34375 -12.546875 L 2.34375 -29.109375 L 10.53125 -29.109375 L 10.53125 -12.953125 C 10.53125 -10.742188 11.039062 -9.160156 12.0625 -8.203125 C 13.09375 -7.242188 14.414062 -6.765625 16.03125 -6.765625 C 17.726562 -6.765625 19.046875 -7.28125 19.984375 -8.3125 C 20.929688 -9.351562 21.390625 -11.066406 21.359375 -13.453125 Z M 21.28125 -29.109375 "/></g></g></g><g fill="#000000" fill-opacity="1"><g transform="translate(305.449045, 202.499987)"><g><path d="M 2.453125 0 L 2.453125 -29.109375 L 10.65625 -29.109375 L 10.65625 -7.140625 L 22.796875 -7.140625 L 22.296875 0 Z M 2.453125 0 "/></g></g></g><g fill="#000000" fill-opacity="1"><g transform="translate(94.116881, 231.73406)"><g><path d="M 2.90625 5.734375 C 1.976562 4.054688 1.613281 2.546875 1.8125 1.203125 C 2.007812 -0.128906 2.757812 -1.234375 4.0625 -2.109375 L 6.484375 1.09375 C 6.023438 1.375 5.753906 1.789062 5.671875 2.34375 C 5.597656 2.90625 5.738281 3.503906 6.09375 4.140625 C 6.71875 5.285156 7.328125 5.691406 7.921875 5.359375 C 8.210938 5.203125 8.351562 4.921875 8.34375 4.515625 C 8.34375 4.109375 8.226562 3.488281 8 2.65625 C 7.519531 0.90625 7.390625 -0.503906 7.609375 -1.578125 C 7.835938 -2.660156 8.523438 -3.507812 9.671875 -4.125 C 10.546875 -4.59375 11.4375 -4.785156 12.34375 -4.703125 C 13.25 -4.628906 14.109375 -4.285156 14.921875 -3.671875 C 15.742188 -3.066406 16.457031 -2.21875 17.0625 -1.125 C 17.800781 0.21875 18.070312 1.515625 17.875 2.765625 C 17.675781 4.015625 17.023438 5.023438 15.921875 5.796875 L 13.546875 2.796875 C 13.878906 2.535156 14.070312 2.179688 14.125 1.734375 C 14.175781 1.285156 14.082031 0.835938 13.84375 0.390625 C 13.601562 -0.0351562 13.328125 -0.332031 13.015625 -0.5 C 12.703125 -0.675781 12.398438 -0.679688 12.109375 -0.515625 C 11.835938 -0.367188 11.675781 -0.113281 11.625 0.25 C 11.582031 0.625 11.671875 1.210938 11.890625 2.015625 C 12.203125 3.179688 12.390625 4.203125 12.453125 5.078125 C 12.515625 5.953125 12.390625 6.707031 12.078125 7.34375 C 11.773438 7.976562 11.21875 8.519531 10.40625 8.96875 C 9.539062 9.445312 8.648438 9.632812 7.734375 9.53125 C 6.816406 9.425781 5.9375 9.050781 5.09375 8.40625 C 4.257812 7.757812 3.53125 6.867188 2.90625 5.734375 Z M 2.90625 5.734375 "/></g></g></g><g fill="#000000" fill-opacity="1"><g transform="translate(102.41078, 246.335432)"><g><path d="M -0.53125 -0.65625 L 15.59375 -4.953125 L 17.8125 -2.171875 L 9.984375 12.453125 L 7.265625 9.0625 L 8.734375 6.515625 L 5.03125 1.90625 L 2.1875 2.734375 Z M 8.703125 0.8125 L 10.609375 3.1875 L 12.578125 -0.3125 Z M 8.703125 0.8125 "/></g></g></g><g fill="#000000" fill-opacity="1"><g transform="translate(114.492545, 260.93741)"><g><path d="M 18.390625 -4.421875 L 21.609375 -1.6875 L 16.21875 4.71875 C 15.320312 5.800781 14.300781 6.5625 13.15625 7 C 12.007812 7.4375 10.832031 7.535156 9.625 7.296875 C 8.425781 7.066406 7.296875 6.503906 6.234375 5.609375 C 4.484375 4.117188 3.503906 2.535156 3.296875 0.859375 C 3.097656 -0.816406 3.726562 -2.515625 5.1875 -4.234375 L 10.8125 -10.859375 L 14.109375 -8.0625 L 8.625 -1.609375 C 7.863281 -0.710938 7.523438 0.0976562 7.609375 0.828125 C 7.691406 1.554688 8.054688 2.191406 8.703125 2.734375 C 9.378906 3.304688 10.082031 3.546875 10.8125 3.453125 C 11.539062 3.359375 12.300781 2.832031 13.09375 1.875 Z M 18.390625 -4.421875 "/></g></g></g><g fill="#000000" fill-opacity="1"><g transform="translate(130.235909, 273.609474)"><g><path d="M 3.78125 2.515625 C 2.625 1.828125 1.816406 0.988281 1.359375 0 C 0.898438 -0.988281 0.8125 -2.050781 1.09375 -3.1875 L 4.890625 -2.78125 C 4.785156 -2.28125 4.800781 -1.867188 4.9375 -1.546875 C 5.070312 -1.222656 5.289062 -0.972656 5.59375 -0.796875 C 5.9375 -0.597656 6.269531 -0.546875 6.59375 -0.640625 C 6.914062 -0.734375 7.191406 -0.96875 7.421875 -1.34375 L 12.671875 -10.234375 L 16.375 -8.046875 L 11.40625 0.375 C 10.5 1.90625 9.367188 2.859375 8.015625 3.234375 C 6.660156 3.617188 5.25 3.378906 3.78125 2.515625 Z M 3.78125 2.515625 "/></g></g></g><g fill="#000000" fill-opacity="1"><g transform="translate(143.024042, 281.027517)"><g><path d="M -0.78125 -0.3125 L 11.03125 -12.078125 L 14.359375 -10.78125 L 14.859375 5.796875 L 10.8125 4.21875 L 10.8125 1.28125 L 5.3125 -0.875 L 3.265625 1.265625 Z M 7.9375 -3.65625 L 10.765625 -2.546875 L 10.75 -6.5625 Z M 7.9375 -3.65625 "/></g></g></g><g fill="#000000" fill-opacity="1"><g transform="translate(160.780151, 287.628847)"><g><path d="M 13.609375 -13.015625 L 17.671875 -12.265625 L 14.90625 2.75 L 11.140625 2.046875 L 6.8125 -7.09375 L 5.328125 0.984375 L 1.28125 0.234375 L 4.046875 -14.78125 L 7.796875 -14.09375 L 12.125 -4.96875 Z M 13.609375 -13.015625 "/></g></g></g><g fill="#000000" fill-opacity="1"><g transform="translate(180.698735, 290.872926)"><g><path d="M -0.84375 0 L 5.765625 -15.3125 L 9.328125 -15.34375 L 15.953125 -0.125 L 11.609375 -0.09375 L 10.515625 -2.8125 L 4.609375 -2.765625 L 3.5 -0.03125 Z M 6.03125 -6.328125 L 9.0625 -6.359375 L 7.546875 -10.078125 Z M 6.03125 -6.328125 "/></g></g></g><g fill="#000000" fill-opacity="1"><g transform="translate(199.173949, 290.192108)"><g/></g></g><g fill="#000000" fill-opacity="1"><g transform="translate(208.126718, 289.072699)"><g><path d="M 6.46875 -17.765625 L 10.515625 -18.9375 L 12.890625 -10.921875 C 13.296875 -9.578125 13.363281 -8.300781 13.09375 -7.09375 C 12.832031 -5.894531 12.273438 -4.859375 11.421875 -3.984375 C 10.566406 -3.117188 9.46875 -2.492188 8.125 -2.109375 C 5.914062 -1.472656 4.054688 -1.53125 2.546875 -2.28125 C 1.035156 -3.039062 -0.03125 -4.5 -0.65625 -6.65625 L -3.078125 -15.015625 L 1.0625 -16.203125 L 3.421875 -8.0625 C 3.742188 -6.9375 4.234375 -6.207031 4.890625 -5.875 C 5.546875 -5.550781 6.28125 -5.507812 7.09375 -5.75 C 7.9375 -5.988281 8.519531 -6.441406 8.84375 -7.109375 C 9.175781 -7.773438 9.164062 -8.695312 8.8125 -9.875 Z M 6.46875 -17.765625 "/></g></g></g><g fill="#000000" fill-opacity="1"><g transform="translate(227.477441, 282.967278)"><g><path d="M 5.578125 -19.828125 L 6.6875 -16.203125 L 2.6875 -14.21875 L 7.828125 -3.890625 L 3.953125 -1.96875 L -1.1875 -12.296875 L -5.453125 -10.171875 L -7.109375 -13.515625 Z M 5.578125 -19.828125 "/></g></g></g><g fill="#000000" fill-opacity="1"><g transform="translate(242.371287, 275.310422)"><g><path d="M -0.6875 0.5 L -4.296875 -15.78125 L -1.4375 -17.890625 L 12.859375 -9.453125 L 9.359375 -6.875 L 6.859375 -8.4375 L 2.09375 -4.9375 L 2.8125 -2.078125 Z M 1.171875 -8.65625 L 3.625 -10.453125 L 0.203125 -12.578125 Z M 1.171875 -8.65625 "/></g></g></g><g fill="#000000" fill-opacity="1"><g transform="translate(257.713527, 263.868039)"><g><path d="M 0.875 -1 L -10.234375 -11.453125 L -7.921875 -14.078125 L 2.9375 -11.3125 L -1.1875 -21.671875 L 1.140625 -24.296875 L 12.78125 -14.421875 L 10.015625 -11.3125 L 5.15625 -15.453125 L 7.78125 -8.765625 L 5.78125 -6.515625 L -1.078125 -8.265625 L 3.5 -3.9375 Z M 0.875 -1 "/></g></g></g><g fill="#000000" fill-opacity="1"><g transform="translate(273.440286, 245.076712)"><g><path d="M -0.421875 0.734375 L -10.40625 -12.625 L -8.65625 -15.734375 L 7.84375 -13.890625 L 5.703125 -10.109375 L 2.796875 -10.515625 L -0.109375 -5.375 L 1.71875 -3.046875 Z M -2.484375 -8.390625 L -0.984375 -11.03125 L -4.96875 -11.5625 Z M -2.484375 -8.390625 "/></g></g></g></svg>