<svg width="225" height="184" viewBox="0 0 225 184" fill="none" xmlns="http://www.w3.org/2000/svg">
<path d="M54.6552 50.0801L52.966 48.6552L54.7687 46.5368L49.7893 42.3378L49.5624 44.658L47.2555 44.3932L47.8102 39.1223L48.8187 37.9244L56.5335 44.4436L58.1975 42.4639L59.8867 43.8888L54.6552 50.0801Z" fill="#121212"/>
<path d="M65.3741 39.1623C64.2206 40.1805 63.0168 40.5683 61.7562 40.3224C60.4956 40.0702 59.1908 39.1465 57.8357 37.5483C56.9974 36.5647 56.4081 35.5748 56.0709 34.5724C55.7274 33.5636 55.6517 32.6147 55.844 31.7226C56.0394 30.8336 56.5184 30.0644 57.281 29.415C58.3494 28.5071 59.5092 28.1982 60.7603 28.4819C62.0114 28.7593 63.2878 29.6609 64.5925 31.1804C65.415 32.1576 66.0075 33.1412 66.3699 34.131C66.7387 35.1146 66.8427 36.0446 66.6851 36.9178C66.5244 37.7847 66.0863 38.5318 65.3741 39.1623ZM63.7605 37.3969C64.2458 36.9777 64.3782 36.3976 64.1513 35.6568C63.9244 34.9097 63.3729 34.0239 62.4999 32.9962C60.8864 31.0984 59.6447 30.5215 58.7685 31.2686C58.2738 31.6911 58.1351 32.2869 58.3525 33.0592C58.5637 33.8347 59.09 34.7174 59.9283 35.7072C60.7603 36.6845 61.4851 37.3087 62.1091 37.5861C62.73 37.8635 63.2815 37.8004 63.7605 37.3969Z" fill="#121212"/>
<path d="M74.8464 32.3636C73.5417 33.18 72.2906 33.366 71.0898 32.9184C69.8986 32.4644 68.7577 31.339 67.6736 29.539C67.0118 28.4294 66.5895 27.3544 66.413 26.3109C66.2365 25.2612 66.3216 24.3155 66.6651 23.4738C67.0024 22.6258 67.598 21.9448 68.4552 21.431C69.6591 20.7091 70.8535 20.5925 72.0479 21.0779C73.2392 21.5571 74.3485 22.6541 75.3759 24.3691C76.0377 25.4629 76.4663 26.5253 76.6617 27.5593C76.8634 28.5933 76.8129 29.5264 76.5104 30.3586C76.2079 31.1909 75.6532 31.8592 74.8464 32.3636ZM73.5354 30.346C74.0806 30.0182 74.3044 29.4728 74.2035 28.7068C74.109 27.9344 73.715 26.9666 73.0186 25.8066C71.739 23.6818 70.6045 22.9158 69.6149 23.5116C69.0603 23.8394 68.8271 24.4037 68.909 25.2013C68.9941 25.9925 69.3691 26.9477 70.0309 28.0637C70.6928 29.1576 71.3073 29.8921 71.8714 30.2704C72.4418 30.6487 72.9965 30.6739 73.5354 30.346Z" fill="#121212"/>
<path d="M81.2532 21.4035C80.396 21.7156 79.6207 21.7282 78.9211 21.4414C78.2152 21.1577 77.7172 20.6154 77.421 19.8147C77.2193 19.2599 77.1783 18.7177 77.2949 18.1881C77.4147 17.6522 77.6573 17.1762 78.0261 16.7632C78.3979 16.3439 78.8801 16.0255 79.4758 15.8049C80.3487 15.4865 81.1303 15.4707 81.8205 15.7544C82.517 16.0413 83.0117 16.593 83.308 17.4063C83.5097 17.9611 83.5538 18.5033 83.4466 19.0329C83.3363 19.5625 83.0937 20.0386 82.7155 20.4578C82.3373 20.8708 81.8488 21.186 81.2532 21.4035ZM81.7196 28.301L85.7535 13.7117L87.9092 12.9173L83.8878 27.5066L81.7196 28.301ZM80.7742 19.84C81.1524 19.7076 81.4108 19.4743 81.5557 19.1464C81.6976 18.8186 81.6976 18.4592 81.5557 18.062C81.4297 17.7089 81.228 17.4693 80.9507 17.3432C80.6733 17.2171 80.3613 17.2171 80.0178 17.3432C79.6144 17.4883 79.3434 17.7215 79.1984 18.0494C79.0472 18.3772 79.044 18.7429 79.1858 19.1464C79.3213 19.4995 79.5262 19.7391 79.8035 19.8652C80.0808 19.9913 80.4023 19.985 80.7742 19.84ZM90.153 25.363C89.2864 25.6845 88.5048 25.7003 87.8083 25.4134C87.1087 25.1297 86.6139 24.5812 86.3208 23.7742C86.1191 23.2193 86.0687 22.6771 86.1695 22.1475C86.2767 21.6179 86.5162 21.1482 86.8881 20.7352C87.2663 20.3254 87.7579 20.0102 88.363 19.7895C89.2265 19.4711 90.0049 19.4554 90.6951 19.7391C91.3915 20.0259 91.8863 20.5713 92.1826 21.3783C92.3843 21.9332 92.4252 22.4754 92.3086 23.005C92.1983 23.5283 91.9588 23.998 91.5901 24.4173C91.2182 24.8302 90.7392 25.1455 90.153 25.363ZM89.6362 23.8246C90.0143 23.6827 90.2728 23.4463 90.4177 23.1185C90.5596 22.7906 90.5564 22.4186 90.4051 21.9962C90.2791 21.6526 90.0774 21.4256 89.8001 21.3153C89.5227 21.1986 89.2076 21.2018 88.8546 21.3279C88.4575 21.4792 88.1928 21.7188 88.0604 22.0466C87.9249 22.3682 87.9281 22.7244 88.073 23.1185C88.1991 23.4715 88.3945 23.7111 88.6655 23.8372C88.9428 23.9633 89.2643 23.9602 89.6362 23.8246Z" fill="#121212"/>
<path d="M102.06 22.5453L101.216 10.2509L105.817 9.93567C107.304 9.82849 108.496 10.0334 109.397 10.5535C110.295 11.0768 110.787 11.8996 110.872 13.025C110.903 13.5893 110.809 14.1095 110.582 14.5886C110.361 15.0615 110.04 15.4429 109.611 15.7361C110.122 15.9379 110.547 16.2594 110.885 16.6944C111.228 17.1232 111.42 17.6528 111.464 18.2833C111.515 18.9894 111.367 19.6293 111.023 20.1999C110.677 20.7642 110.166 21.2213 109.485 21.5744C108.805 21.9275 107.979 22.1387 107.015 22.2049L102.06 22.5453ZM106.031 12.2306L104.14 12.3693L104.317 15.0174L106.044 14.8913C106.766 14.8408 107.286 14.699 107.607 14.4625C107.935 14.2198 108.086 13.8636 108.061 13.3907C108.026 12.962 107.847 12.6531 107.519 12.4576C107.197 12.2653 106.703 12.1896 106.031 12.2306ZM104.657 20.0486L106.813 19.8973C107.418 19.8563 107.878 19.7145 108.199 19.4686C108.527 19.2164 108.672 18.8507 108.641 18.3715C108.606 17.9018 108.433 17.574 108.124 17.388C107.812 17.2051 107.317 17.1358 106.636 17.1862L104.481 17.3375L104.657 20.0486Z" fill="#121212"/>
<path d="M123.917 10.6552L126.703 10.983L125.946 17.6031C125.811 18.7632 125.47 19.7562 124.925 20.5789C124.386 21.4049 123.683 22.0038 122.82 22.3821C121.953 22.7604 120.979 22.8865 119.895 22.7604C118.08 22.5397 116.756 21.9282 115.924 20.9194C115.099 19.9043 114.793 18.5078 115.004 16.733L115.849 9.68421L118.66 10.0247L117.841 16.8465C117.715 17.9404 117.856 18.7569 118.269 19.2928C118.679 19.8224 119.309 20.1376 120.16 20.2385C120.998 20.3394 121.679 20.1439 122.202 19.6458C122.722 19.1414 123.05 18.2966 123.185 17.1113L123.917 10.6552Z" fill="#121212"/>
<path d="M127.094 23.5227L135.956 13.435L138.213 14.1663L139.322 27.4695L136.574 26.5868L136.41 23.8884L131.582 22.3248L129.83 24.4054L127.094 23.5227ZM133.234 20.3829L136.246 21.3538L135.982 17.0918L133.234 20.3829Z" fill="#121212"/>
<path d="M155.288 22.0096L153.801 24.0271L150.511 22.287L145.922 30.9876L143.401 29.651L147.989 20.9504L144.548 19.1346L145.708 16.9405L155.288 22.0096Z" fill="#121212"/>
<path d="M149.978 33.0876L161.752 26.6315L163.618 28.0816L160.126 40.9813L157.857 39.2033L158.626 36.6057L154.617 33.4912L152.247 34.853L149.978 33.0876ZM156.823 32.2176L159.319 34.1595L160.542 30.0865L156.823 32.2176Z" fill="#121212"/>
<path d="M176.023 40.3036L177.813 42.3589L168.535 50.4669L166.884 48.5755L169.052 39.4209L163.291 44.4521L161.501 42.3968L170.779 34.2888L172.43 36.1928L170.262 45.3474L176.023 40.3036Z" fill="#121212"/>
<path d="M38.4405 131.336C37.6904 129.98 37.3973 128.764 37.558 127.679C37.7156 126.604 38.3207 125.712 39.3733 125.006L41.3272 127.591C40.9553 127.818 40.7379 128.152 40.6717 128.6C40.6118 129.054 40.7253 129.536 41.0121 130.05C41.5163 130.973 42.0079 131.301 42.487 131.033C42.7202 130.907 42.8336 130.68 42.8273 130.352C42.8273 130.025 42.7328 129.523 42.55 128.852C42.1624 127.44 42.0584 126.302 42.2349 125.435C42.4176 124.561 42.9723 123.877 43.8988 123.379C44.6048 123.001 45.3233 122.847 46.0545 122.913C46.7856 122.973 47.4789 123.25 48.1344 123.745C48.7963 124.234 49.373 124.918 49.8615 125.8C50.4571 126.885 50.6746 127.931 50.517 128.94C50.3563 129.949 49.8299 130.762 48.9412 131.386L47.0251 128.965C47.293 128.754 47.4474 128.467 47.4915 128.108C47.5325 127.745 47.4569 127.383 47.2646 127.023C47.0692 126.68 46.8486 126.44 46.5965 126.305C46.3444 126.163 46.0986 126.16 45.8654 126.292C45.6448 126.412 45.5156 126.617 45.4746 126.91C45.4399 127.213 45.5124 127.685 45.6889 128.335C45.941 129.274 46.0923 130.1 46.1427 130.806C46.1931 131.512 46.0923 132.121 45.8402 132.635C45.5943 133.145 45.1468 133.584 44.4913 133.946C43.7917 134.331 43.0732 134.482 42.3357 134.4C41.5951 134.315 40.886 134.012 40.2053 133.492C39.5309 132.969 38.9447 132.25 38.4405 131.336Z" fill="#121212"/>
<path d="M42.3584 137.962L55.3678 134.494L57.1578 136.739L50.8422 148.542L48.6488 145.805L49.8338 143.75L46.8461 140.03L44.5519 140.698L42.3584 137.962ZM49.8085 139.147L51.3465 141.064L52.9348 138.24L49.8085 139.147Z" fill="#121212"/>
<path d="M67.3718 146.707L69.9686 148.914L65.6195 154.084C64.8947 154.957 64.0721 155.572 63.1488 155.925C62.2222 156.278 61.2736 156.357 60.2998 156.165C59.3323 155.979 58.4215 155.525 57.5643 154.803C56.1524 153.598 55.3614 152.322 55.1944 150.969C55.0337 149.617 55.5411 148.246 56.7197 146.859L61.2579 141.512L63.9177 143.769L59.493 148.977C58.8785 149.702 58.6043 150.355 58.6736 150.944C58.7398 151.53 59.0329 152.044 59.5561 152.483C60.1013 152.943 60.6685 153.138 61.2579 153.063C61.844 152.987 62.4586 152.561 63.0983 151.789L67.3718 146.707Z" fill="#121212"/>
<path d="M68.2866 162.533C67.3538 161.978 66.7014 161.3 66.3327 160.502C65.9608 159.705 65.8915 158.847 66.1184 157.93L69.1817 158.258C69.0966 158.661 69.1092 158.996 69.2195 159.254C69.3266 159.516 69.5031 159.717 69.7489 159.859C70.0263 160.02 70.2941 160.061 70.5557 159.985C70.8141 159.91 71.0379 159.721 71.2238 159.418L75.4594 152.243L78.447 154.008L74.4383 160.805C73.7072 162.041 72.7933 162.81 71.7028 163.113C70.6093 163.422 69.4716 163.229 68.2866 162.533Z" fill="#121212"/>
<path d="M74.9229 166.237L84.453 156.742L87.1381 157.788L87.5415 171.167L84.2765 169.894V167.523L79.8392 165.783L78.1878 167.51L74.9229 166.237ZM81.957 163.538L84.2387 164.434L84.2261 161.193L81.957 163.538Z" fill="#121212"/>
<path d="M100.858 161.312L104.136 161.918L101.905 174.036L98.8665 173.468L95.3747 166.092L94.1771 172.611L90.9122 172.005L93.1434 159.888L96.1689 160.442L99.6607 167.806L100.858 161.312Z" fill="#121212"/>
<path d="M105.268 174.434L110.6 162.077L113.474 162.052L118.819 174.333L115.315 174.359L114.432 172.165L109.667 172.202L108.772 174.409L105.268 174.434ZM110.814 169.327L113.26 169.302L112.037 166.301L110.814 169.327Z" fill="#121212"/>
<path d="M133.296 158.644L136.561 157.699L138.477 164.167C138.805 165.252 138.858 166.283 138.641 167.257C138.43 168.225 137.979 169.06 137.292 169.766C136.602 170.466 135.716 170.97 134.632 171.279C132.848 171.793 131.348 171.746 130.132 171.141C128.912 170.529 128.052 169.35 127.547 167.61L125.594 160.864L128.934 159.905L130.838 166.475C131.096 167.383 131.493 167.972 132.023 168.24C132.552 168.502 133.145 168.537 133.8 168.341C134.481 168.149 134.95 167.783 135.212 167.244C135.48 166.708 135.47 165.964 135.187 165.012L133.296 158.644Z" fill="#121212"/>
<path d="M148.189 152.053L149.084 154.978L145.857 156.58L150.004 164.915L146.878 166.466L142.731 158.131L139.289 159.845L137.953 157.147L148.189 152.053Z" fill="#121212"/>
<path d="M155.15 162.279L152.238 149.139L154.545 147.437L166.079 154.246L163.256 156.327L161.239 155.066L157.394 157.89L157.974 160.198L155.15 162.279ZM156.65 154.889L158.629 153.439L155.869 151.724L156.65 154.889Z" fill="#121212"/>
<path d="M168.788 151.834L159.826 143.398L161.691 141.28L170.452 143.512L167.124 135.151L169.003 133.033L178.394 141.002L176.163 143.512L172.242 140.17L174.36 145.567L172.747 147.383L167.213 145.97L170.906 149.463L168.788 151.834Z" fill="#121212"/>
<path d="M180.43 138.069L172.375 127.287L173.787 124.778L187.099 126.266L185.372 129.318L183.027 128.99L180.682 133.138L182.157 135.017L180.43 138.069ZM178.766 130.705L179.976 128.574L176.762 128.145L178.766 130.705Z" fill="#121212"/>
<path d="M0 103.714V80.2226H6.61813V97.9518H16.413L16.0096 103.714H0Z" fill="#121212"/>
<path d="M37.7153 85.8844H27.0885V89.0872H36.8455V94.749H27.0885V98.0527H37.98L37.5766 103.714H20.5712V80.2226H37.7153V85.8844Z" fill="#121212"/>
<path d="M42.64 103.714L43.3333 80.2226H48.7287L56.5948 95.5434L64.3349 80.2226H69.7302L70.2218 103.714H63.8432L63.6415 93.8915L58.6117 103.714H53.9854L48.9808 94.0554L48.6909 103.714H42.64Z" fill="#121212"/>
<path d="M73.3307 103.714L83.6802 80.2226H89.1764L99.1603 103.714H92.4792L90.8278 99.5154H81.7263L80.0119 103.714H73.3307ZM83.9827 94.0554H88.6469L86.3653 88.2928L83.9827 94.0554Z" fill="#121212"/>
<path d="M117.281 80.2226H123.635V103.714H117.748L108.646 91.0795V103.714H102.293V80.2226H108.192L117.281 92.8323V80.2226Z" fill="#121212"/>
<path d="M141.859 90.386H152.637V103.714H147.418L146.977 101.697C146.296 102.488 145.391 103.084 144.266 103.487C143.138 103.881 141.937 104.08 140.661 104.08C138.256 104.08 136.167 103.62 134.396 102.693C132.622 101.76 131.248 100.423 130.274 98.6831C129.306 96.943 128.824 94.8718 128.824 92.4666C128.824 89.9698 129.379 87.7821 130.488 85.8969C131.604 84.0149 133.173 82.5428 135.19 81.4836C137.207 80.4243 139.558 79.8947 142.249 79.8947C144.745 79.8947 146.806 80.2951 148.439 81.0927C150.068 81.8839 151.427 83.0944 152.511 84.7242L147.481 88.3558C146.967 87.4574 146.233 86.8111 145.275 86.4139C144.317 86.0104 143.321 85.8087 142.287 85.8087C140.251 85.8087 138.647 86.4076 137.472 87.5992C136.293 88.794 135.707 90.3607 135.707 92.3026C135.707 94.1531 136.217 95.6001 137.245 96.6404C138.269 97.6743 139.684 98.1913 141.493 98.1913C142.527 98.1913 143.453 97.977 144.279 97.5483C145.111 97.1132 145.691 96.4985 146.019 95.7072H141.859V90.386Z" fill="#121212"/>
<path d="M177.439 80.2226L176.481 85.9852H169.598V103.714H162.992V85.9852H155.643V80.2226H177.439Z" fill="#121212"/>
<path d="M195.864 80.2226H202.344L202.407 93.0971C202.432 95.2596 201.991 97.1669 201.083 98.8219C200.182 100.471 198.918 101.76 197.289 102.693C195.656 103.62 193.759 104.08 191.591 104.08C188.067 104.08 185.354 103.197 183.447 101.432C181.538 99.6667 180.586 97.0534 180.586 93.5889V80.2226H187.191V93.261C187.191 95.0453 187.601 96.322 188.427 97.0944C189.259 97.8698 190.324 98.2544 191.629 98.2544C192.996 98.2544 194.062 97.8383 194.818 97.0061C195.581 96.1675 195.952 94.7836 195.927 92.8575L195.864 80.2226Z" fill="#121212"/>
<path d="M208.587 103.714V80.2226H215.205V97.9518H225L224.597 103.714H208.587Z" fill="#121212"/>
<path fill-rule="evenodd" clip-rule="evenodd" d="M210.57 69.6053H13.917V65.9737H210.57V69.6053ZM210.57 114.395H13.917V118.026H210.57V114.395Z" fill="#121212"/>
<path fill-rule="evenodd" clip-rule="evenodd" d="M112.244 151.921C137.348 151.921 158.828 136.395 167.609 114.419H171.502C162.537 138.444 139.388 155.553 112.244 155.553C85.0905 155.553 61.9348 138.433 52.9762 114.395H56.8685C65.6438 136.384 87.1297 151.921 112.244 151.921ZM171.282 69.6053C162.162 45.8859 139.168 29.0526 112.244 29.0526C85.3189 29.0526 62.3248 45.8859 53.2053 69.6053H57.1139C66.0394 47.9369 87.3608 32.6842 112.244 32.6842C137.126 32.6842 158.448 47.9369 167.373 69.6053H171.282Z" fill="#121212"/>
<path fill-rule="evenodd" clip-rule="evenodd" d="M112.244 180.368C153.447 180.368 188.072 152.349 198.017 114.395H201.766C191.735 154.382 155.459 184 112.244 184C69.0284 184 32.7518 154.382 22.7209 114.395H26.4701C36.4148 152.349 71.0398 180.368 112.244 180.368ZM201.766 69.6053C191.735 29.6183 155.459 0 112.244 0C69.0284 0 32.7518 29.6183 22.7209 69.6053H26.4701C36.4148 31.6511 71.0398 3.63158 112.244 3.63158C153.447 3.63158 188.072 31.6511 198.017 69.6053H201.766Z" fill="#121212"/>
</svg>
